<?xml version="1.0" encoding="utf-8"?>
<!-- Generator: Adobe Illustrator 23.0.3, SVG Export Plug-In . SVG Version: 6.00 Build 0)  -->
<svg version="1.1" id="Layer_1" xmlns="http://www.w3.org/2000/svg" xmlns:xlink="http://www.w3.org/1999/xlink" x="0px" y="0px"
	 viewBox="0 0 200 85" style="enable-background:new 0 0 200 85;" xml:space="preserve">
<g>
	<path d="M40,40.5l-0.9,2c-0.4,0.1-0.8,0.1-1,0.1c-0.6,0-1.5-0.1-2.4-0.3c-0.8-0.2-1.6-0.3-2.2-0.5c-0.6-0.2-1.5-0.4-2.8-0.8
		c-0.5-0.2-1.5-0.4-2.8-0.8c-0.9,0.8-1.9,1.4-3,1.9c-1.1,0.5-2.3,0.7-3.4,0.7c-1.3,0-2.4-0.2-3.2-0.7c-0.8-0.5-1.2-1.1-1.2-1.9
		c0-0.9,0.5-1.5,1.4-2c0.9-0.5,2.2-0.7,3.7-0.7c1.8,0,3.7,0.3,6,1c0.4-0.7,0.7-1.4,1-2.2c0.2-0.8,0.5-1.8,0.8-3.2l1.5-6.8
		c0.4-2,0.8-3.6,1.2-4.6c0.3-1.1,0.8-2,1.2-2.9c0.5-0.8,1-1.5,1.6-2c0.6-0.6,1.2-1.1,1.8-1.4c0.7-0.3,1.3-0.5,1.8-0.5
		c0.7,0,1.2,0.2,1.7,0.5s0.9,0.7,1.1,1.3c0.2,0.6,0.4,1.3,0.4,2c0,0.7-0.1,1.6-0.4,2.6c-0.3,1.1-0.6,2.1-1,2.9l-1.9,0.3
		c0.6-1,1-2.2,1.4-3.5c0.4-1.2,0.6-2.2,0.6-3.1c0-0.8-0.2-1.4-0.5-1.9c-0.4-0.4-0.9-0.7-1.5-0.7c-1.4,0-2.6,0.9-3.5,2.8
		c-0.3,0.6-0.5,1.2-0.7,1.8c-0.2,0.8-0.5,1.9-0.8,3.1l-1.8,8.5c-0.4,1.8-0.8,3.3-1.2,4.4c-0.4,1.1-1,2-1.6,2.8l0.5,0.2
		c2.1,0.7,3.8,1.2,5,1.5c1.2,0.3,2.3,0.5,3.2,0.5C38.4,40.7,39.2,40.6,40,40.5z M26.8,39.8l-0.5-0.1c-2.4-0.7-4.3-1.1-5.6-1.1
		c-2.1,0-3.1,0.5-3.1,1.6c0,0.5,0.4,1,1.1,1.4c0.7,0.4,1.6,0.6,2.7,0.6c1,0,2-0.2,3-0.6C25.3,41.1,26.1,40.5,26.8,39.8z"/>
	<path d="M41.3,38.1c0-1.2,0.3-2.5,1-3.7c0.7-1.2,1.5-2.2,2.6-3c1.1-0.8,2.1-1.1,3.2-1.1c1.1,0,2.1,0.4,2.8,1.1c0.7,0.8,1,1.7,1,2.9
		c0,1.3-0.3,2.6-1,3.8c-0.7,1.2-1.5,2.2-2.6,3c-1.1,0.8-2.1,1.2-3.2,1.2c-1.2,0-2.1-0.4-2.8-1.2C41.6,40.4,41.3,39.4,41.3,38.1z
		 M50,33.6c0-0.8-0.2-1.5-0.6-2c-0.4-0.5-0.9-0.8-1.6-0.8c-0.6,0-1.1,0.2-1.6,0.6c-0.5,0.4-1,0.9-1.5,1.6c-0.5,0.8-0.9,1.8-1.2,2.9
		c-0.3,1.1-0.5,2-0.5,2.9c0,1,0.2,1.8,0.6,2.3c0.4,0.5,0.9,0.8,1.7,0.8c1.2,0,2.2-0.8,3.1-2.5c0.5-0.8,0.8-1.8,1.1-2.8
		S50,34.5,50,33.6z"/>
	<path d="M55.3,40.4l-1.2-9.5l1.8-0.8v0.5c0,1.9,0.2,4,0.3,6.3c0.1,1,0.2,1.9,0.3,2.5c0.1,0.6,0.2,0.9,0.3,1.1s0.3,0.3,0.5,0.3
		c0.5,0,1.4-1,2.7-2.9c1.2-1.7,1.7-3.3,1.7-4.7c0-0.5-0.1-0.9-0.2-1.3c-0.1-0.3-0.4-0.7-0.7-1l1.5-1.4c0.5,0.6,0.7,1.4,0.7,2.3
		c0,1.8-1.1,4.2-3.2,7.2c-0.6,0.9-1.3,1.7-2.1,2.4c-0.4,0.3-0.7,0.6-0.8,0.7c-0.2,0.1-0.4,0.2-0.6,0.2c-0.3,0-0.6-0.1-0.7-0.4
		C55.5,41.6,55.4,41.1,55.3,40.4z"/>
	<path d="M66.3,30.9l2-0.8l-1.8,6.7c-0.3,1.1-0.5,2-0.5,2.7c0,0.4,0.1,0.8,0.2,1.1s0.3,0.4,0.6,0.4c0.4,0,1.1-0.5,2-1.5l0.3,0.3
		l-0.2,0.2c-0.8,0.9-1.4,1.5-1.7,1.8c-0.4,0.3-0.7,0.5-1,0.5c-0.4,0-0.8-0.2-1.1-0.7c-0.3-0.4-0.5-1-0.5-1.6c0-0.4,0.1-1.1,0.2-1.9
		L66.3,30.9z M68.9,22c0.4,0,0.6,0.1,0.9,0.3c0.2,0.2,0.3,0.5,0.3,0.9c0,0.3-0.1,0.6-0.3,0.9c-0.2,0.2-0.5,0.3-0.8,0.3
		c-0.3,0-0.6-0.1-0.8-0.4s-0.4-0.5-0.4-0.8c0-0.3,0.1-0.6,0.3-0.8C68.3,22.2,68.6,22,68.9,22z"/>
	<path d="M71.9,41.8l-1.4,0.4l2.2-11.3l1.9-0.8l-1.8,7.5c0.6-1.3,1.2-2.3,1.7-3.2c0.5-0.9,1.1-1.6,1.7-2.2c1.1-1.2,2.2-1.9,3.2-1.9
		c0.5,0,0.9,0.2,1.2,0.5c0.3,0.4,0.5,0.8,0.5,1.4c0,0.3-0.1,0.7-0.2,1.3l-0.2,0.9l-0.6,2.5l-0.2,0.8c-0.2,0.8-0.3,1.4-0.3,1.9
		c0,0.4,0.1,0.8,0.2,1c0.2,0.3,0.3,0.4,0.6,0.4c0.4,0,1.1-0.5,2-1.5l0.3,0.3l-0.2,0.2c-0.8,0.9-1.4,1.5-1.7,1.8
		c-0.4,0.3-0.7,0.5-1,0.5c-0.4,0-0.8-0.2-1.1-0.7c-0.3-0.4-0.5-1-0.5-1.6c0-0.4,0.1-1.1,0.2-1.9l0.8-4.3c0.1-0.7,0.2-1.2,0.2-1.4
		c0-0.3-0.1-0.5-0.2-0.7c-0.2-0.2-0.4-0.2-0.6-0.2c-1,0-2.1,1-3.5,3c-0.7,1-1.2,1.9-1.7,2.9c-0.4,1-0.9,2.3-1.5,4L71.9,41.8z"/>
	<path d="M93.5,30.7l1.9-0.8l-3.1,12.5c-0.3,1.2-0.6,2.2-0.8,2.9c-0.3,0.7-0.6,1.2-0.9,1.7c-0.6,1-1.4,1.7-2.3,2.3
		c-0.9,0.5-1.9,0.8-3,0.8c-1,0-1.8-0.3-2.6-0.8l1-1.4c0.9,0.8,1.8,1.3,2.6,1.3c0.5,0,1.1-0.2,1.7-0.5c0.6-0.3,1-0.8,1.3-1.3
		c0.4-0.6,0.7-1.8,1.1-3.4l1.6-6.8c-0.9,1.7-1.8,3-2.8,3.8c-0.9,0.9-1.9,1.3-2.8,1.3c-0.8,0-1.4-0.3-1.8-0.9
		c-0.5-0.6-0.7-1.3-0.7-2.2c0-1.3,0.4-2.6,1.1-4c0.7-1.4,1.6-2.6,2.7-3.5c1.1-0.9,2.1-1.4,3.2-1.4c1,0,1.8,0.4,2.4,1.1L93.5,30.7z
		 M92.8,33.4l0.2-0.9c-0.5-1-1.2-1.5-2.1-1.5c-0.9,0-1.8,0.5-2.7,1.5c-0.7,0.8-1.3,1.9-1.8,3.2c-0.5,1.3-0.8,2.5-0.8,3.4
		c0,0.7,0.2,1.2,0.5,1.6c0.3,0.4,0.7,0.6,1.2,0.6s1.1-0.3,1.8-0.9c0.6-0.6,1.3-1.4,2-2.5C91.8,36.6,92.4,35.1,92.8,33.4z"/>
	<path d="M129.7,33h-1.5l-1.9,9.1H125c-0.5-1.6-1.3-3.2-2.4-4.7c-0.6-0.8-1.2-1.5-1.8-2.1c-0.6-0.6-1.3-1.2-2-1.6
		c-0.9,1.4-1.9,2.7-3.1,3.9c-1.2,1.2-2.4,2.1-3.6,2.9c-1.3,0.8-2.6,1.5-4,1.9c-1.4,0.5-2.8,0.7-4.1,0.7c-0.3,0-0.7,0-1.2-0.1
		l0.7-1.6c0.7,0.1,1.3,0.1,1.6,0.1c3.7,0,7.1-1.5,10-4.4c0.6-0.6,1.2-1.3,1.8-2.1c0.5-0.7,1.2-1.6,1.9-2.7c1.5-2.3,2.7-4.5,3.8-6.6
		l1.9-3.7c1.5-2.9,2.7-4.9,3.5-5.9c0.8-1,1.6-1.5,2.4-1.5c0.2,0,0.5,0.1,0.7,0.2c0.2,0.1,0.4,0.3,0.5,0.5c0.1,0.2,0.2,0.5,0.2,0.7
		c0,0.2,0,0.4-0.1,0.8c-0.1,0.5-0.1,0.8-0.1,0.8l-3.1,14.7h1.5L129.7,33z M125,39.4l1.4-6.5h-7.1l0.1,0.1c1.2,0.9,2.2,1.9,3.1,2.9
		C123.3,36.9,124.1,38,125,39.4z M119.8,32.3h6.7l2.9-13.9c0.1-0.4,0.1-0.7,0.1-0.7c0.1-0.3,0.1-0.5,0.1-0.7c0-0.3-0.2-0.5-0.5-0.5
		c-0.4,0-0.8,0.4-1.3,1.2c-0.5,0.8-1.4,2.4-2.7,4.8c-0.1,0.2-0.5,1-1.2,2.2c-0.5,0.9-0.8,1.4-0.8,1.5l-2,3.6
		C120.4,31.1,119.9,32,119.8,32.3z"/>
	<path d="M132.8,41.8l-1.4,0.4l2.2-11.3l1.9-0.8l-1.8,7.5c0.6-1.3,1.2-2.3,1.7-3.2c0.5-0.9,1.1-1.6,1.7-2.2c1.1-1.2,2.2-1.9,3.2-1.9
		c0.5,0,0.9,0.2,1.2,0.5c0.3,0.4,0.5,0.8,0.5,1.4c0,0.3-0.1,0.7-0.2,1.3l-0.2,0.9l-0.6,2.5l-0.2,0.8c-0.2,0.8-0.3,1.4-0.3,1.9
		c0,0.4,0.1,0.8,0.2,1s0.3,0.4,0.6,0.4c0.4,0,1.1-0.5,2-1.5l0.3,0.3l-0.2,0.2c-0.8,0.9-1.4,1.5-1.7,1.8c-0.4,0.3-0.7,0.5-1,0.5
		c-0.4,0-0.8-0.2-1.1-0.7c-0.3-0.4-0.5-1-0.5-1.6c0-0.4,0.1-1.1,0.2-1.9l0.8-4.3c0.1-0.7,0.2-1.2,0.2-1.4c0-0.3-0.1-0.5-0.2-0.7
		c-0.2-0.2-0.4-0.2-0.6-0.2c-1,0-2.1,1-3.5,3c-0.7,1-1.2,1.9-1.7,2.9c-0.4,1-0.9,2.3-1.5,4L132.8,41.8z"/>
	<path d="M154.4,30.7l1.9-0.8l-3.1,12.5c-0.3,1.2-0.6,2.2-0.8,2.9c-0.3,0.7-0.6,1.2-0.9,1.7c-0.6,1-1.4,1.7-2.3,2.3
		c-0.9,0.5-1.9,0.8-3,0.8c-1,0-1.8-0.3-2.6-0.8l1-1.4c0.9,0.8,1.8,1.3,2.6,1.3c0.5,0,1.1-0.2,1.7-0.5c0.6-0.3,1-0.8,1.3-1.3
		c0.4-0.6,0.7-1.8,1.1-3.4l1.6-6.8c-0.9,1.7-1.8,3-2.8,3.8c-0.9,0.9-1.9,1.3-2.8,1.3c-0.8,0-1.4-0.3-1.8-0.9
		c-0.5-0.6-0.7-1.3-0.7-2.2c0-1.3,0.4-2.6,1.1-4c0.7-1.4,1.6-2.6,2.7-3.5c1.1-0.9,2.1-1.4,3.2-1.4c1,0,1.8,0.4,2.4,1.1L154.4,30.7z
		 M153.7,33.4l0.2-0.9c-0.5-1-1.2-1.5-2.1-1.5c-0.9,0-1.8,0.5-2.7,1.5c-0.7,0.8-1.3,1.9-1.8,3.2c-0.5,1.3-0.8,2.5-0.8,3.4
		c0,0.7,0.2,1.2,0.5,1.6c0.3,0.4,0.7,0.6,1.2,0.6s1.1-0.3,1.8-0.9c0.6-0.6,1.3-1.4,2-2.5C152.8,36.6,153.3,35.1,153.7,33.4z"/>
	<path d="M165.9,38.9l0.4,0.3c-0.8,1.1-1.6,1.9-2.5,2.4c-0.8,0.5-1.7,0.8-2.6,0.8c-1.1,0-2-0.4-2.7-1.1c-0.7-0.7-1-1.7-1-2.9
		c0-1.2,0.3-2.5,1-3.7c0.6-1.2,1.4-2.3,2.4-3.1c1-0.8,1.9-1.2,2.9-1.2c0.6,0,1,0.2,1.4,0.5c0.4,0.3,0.5,0.8,0.5,1.3
		c0,1.1-0.6,2.1-1.7,3.2c-1.2,1.1-2.7,2-4.7,2.7c0,0.1,0,0.2,0,0.4c0,0.9,0.3,1.7,0.8,2.3c0.5,0.6,1.2,0.9,2,0.9
		c0.7,0,1.3-0.2,1.9-0.6C164.6,40.4,165.2,39.7,165.9,38.9z M159.3,37.3c1.4-0.6,2.6-1.4,3.4-2.2c0.5-0.6,1-1.2,1.3-1.8
		c0.3-0.6,0.5-1.2,0.5-1.7c0-0.6-0.3-1-0.9-1c-0.9,0-1.8,0.7-2.7,2.1C160,34.2,159.5,35.7,159.3,37.3z"/>
	<path d="M173.2,14.2l2.2-1L170,36.8l-0.2,0.8c-0.2,0.7-0.3,1.4-0.3,1.9c0,0.4,0.1,0.8,0.2,1c0.2,0.3,0.3,0.4,0.6,0.4
		c0.4,0,1.1-0.5,2-1.5l0.3,0.3l-0.2,0.2c-0.8,0.9-1.4,1.5-1.7,1.8c-0.4,0.3-0.7,0.5-1,0.5c-0.4,0-0.8-0.2-1.1-0.7
		c-0.3-0.5-0.5-1-0.5-1.6c0-0.5,0.1-1.1,0.3-1.9L173.2,14.2z"/>
	<path d="M172.6,40.7l1.1-1.4c0.6,1.4,1.6,2.1,2.9,2.1c0.7,0,1.3-0.2,1.8-0.7c0.5-0.4,0.7-0.9,0.7-1.5c0-0.4-0.1-0.8-0.3-1.1
		c-0.2-0.3-0.8-0.8-1.7-1.5c-0.8-0.7-1.4-1.2-1.6-1.6c-0.3-0.4-0.4-0.8-0.4-1.3c0-0.6,0.2-1.2,0.6-1.8c0.4-0.5,0.9-1,1.5-1.3
		c0.6-0.3,1.3-0.5,2-0.5c0.6,0,1.1,0.2,1.6,0.5c0.4,0.3,0.6,0.7,0.6,1.2c0,0.6-0.3,1.1-0.8,1.3c-0.1-0.6-0.3-1.1-0.7-1.5
		c-0.4-0.4-0.9-0.5-1.6-0.5c-0.5,0-1,0.2-1.5,0.5c-0.4,0.4-0.6,0.8-0.6,1.2c0,0.6,0.4,1.2,1.1,1.7l1.2,1c1.2,0.9,1.7,1.8,1.7,2.8
		c0,0.7-0.2,1.4-0.6,2c-0.4,0.6-0.9,1.1-1.6,1.5c-0.7,0.4-1.4,0.6-2.2,0.6C174.4,42.4,173.4,41.9,172.6,40.7z"/>
</g>
<rect x="16.1" y="52.6" width="166.1" height="1.4"/>
<g>
	<path d="M29.5,68.3V57.5h2.1l2.5,7.6c0.2,0.7,0.4,1.2,0.5,1.6c0.1-0.4,0.3-1,0.6-1.7l2.6-7.5h1.9v10.8h-1.4v-9l-3.1,9H34l-3.1-9.2
		v9.2H29.5z"/>
	<path d="M47.2,65.8l1.4,0.2c-0.2,0.8-0.6,1.4-1.2,1.9s-1.3,0.7-2.2,0.7c-1.1,0-2-0.4-2.7-1.1c-0.7-0.7-1-1.7-1-3
		c0-1.3,0.3-2.3,1-3.1c0.7-0.7,1.6-1.1,2.6-1.1c1,0,1.9,0.4,2.6,1.1c0.7,0.7,1,1.7,1,3c0,0.1,0,0.2,0,0.4h-5.8c0,0.9,0.3,1.5,0.7,2
		c0.4,0.5,1,0.7,1.6,0.7c0.5,0,0.9-0.1,1.2-0.4C46.8,66.8,47,66.4,47.2,65.8z M42.9,63.7h4.4c-0.1-0.7-0.2-1.1-0.5-1.5
		c-0.4-0.5-1-0.8-1.6-0.8c-0.6,0-1.1,0.2-1.5,0.6C43.2,62.4,42.9,63,42.9,63.7z"/>
	<path d="M50.3,68.3v-7.8h1.2v1.1c0.2-0.4,0.6-0.7,1-0.9c0.4-0.2,0.9-0.3,1.4-0.3c0.6,0,1.1,0.1,1.4,0.4c0.4,0.2,0.6,0.6,0.8,1
		c0.6-0.9,1.4-1.4,2.4-1.4c0.8,0,1.4,0.2,1.8,0.6c0.4,0.4,0.6,1.1,0.6,2v5.4h-1.3v-4.9c0-0.5,0-0.9-0.1-1.1
		c-0.1-0.2-0.2-0.4-0.5-0.6s-0.5-0.2-0.8-0.2c-0.5,0-1,0.2-1.4,0.5s-0.5,0.9-0.5,1.8v4.5h-1.3v-5.1c0-0.6-0.1-1-0.3-1.3
		c-0.2-0.3-0.6-0.4-1.1-0.4c-0.4,0-0.7,0.1-1,0.3c-0.3,0.2-0.5,0.5-0.7,0.9c-0.1,0.4-0.2,0.9-0.2,1.6v4H50.3z"/>
	<path d="M62.3,64.4c0-1.4,0.4-2.5,1.2-3.2c0.7-0.6,1.5-0.9,2.5-0.9c1.1,0,1.9,0.4,2.6,1.1c0.7,0.7,1,1.7,1,2.9c0,1-0.2,1.8-0.5,2.4
		c-0.3,0.6-0.7,1-1.3,1.3c-0.6,0.3-1.2,0.5-1.9,0.5c-1.1,0-2-0.4-2.6-1.1C62.6,66.7,62.3,65.7,62.3,64.4z M63.7,64.4
		c0,1,0.2,1.7,0.7,2.2s1,0.7,1.6,0.7c0.7,0,1.2-0.2,1.6-0.7s0.7-1.3,0.7-2.3c0-1-0.2-1.7-0.7-2.2c-0.4-0.5-1-0.7-1.6-0.7
		c-0.7,0-1.2,0.2-1.6,0.7C63.9,62.7,63.7,63.4,63.7,64.4z"/>
	<path d="M71.1,68.3v-7.8h1.2v1.2c0.3-0.6,0.6-0.9,0.8-1.1c0.3-0.2,0.5-0.3,0.8-0.3c0.4,0,0.9,0.1,1.4,0.4L74.9,62
		c-0.3-0.2-0.6-0.3-1-0.3c-0.3,0-0.5,0.1-0.8,0.3s-0.4,0.4-0.5,0.7c-0.1,0.5-0.2,1-0.2,1.5v4.1H71.1z"/>
	<path d="M76.2,59.1v-1.5h1.3v1.5H76.2z M76.2,68.3v-7.8h1.3v7.8H76.2z"/>
	<path d="M84.6,67.3c-0.5,0.4-1,0.7-1.4,0.9s-0.9,0.3-1.5,0.3c-0.9,0-1.5-0.2-2-0.6c-0.5-0.4-0.7-1-0.7-1.6c0-0.4,0.1-0.7,0.3-1
		c0.2-0.3,0.4-0.6,0.7-0.8c0.3-0.2,0.6-0.3,1-0.4c0.3-0.1,0.7-0.1,1.2-0.2c1.1-0.1,1.9-0.3,2.4-0.5c0-0.2,0-0.3,0-0.3
		c0-0.5-0.1-0.9-0.4-1.1c-0.3-0.3-0.8-0.4-1.5-0.4c-0.6,0-1.1,0.1-1.4,0.3c-0.3,0.2-0.5,0.6-0.7,1.2l-1.3-0.2c0.1-0.6,0.3-1,0.6-1.3
		c0.3-0.3,0.7-0.6,1.2-0.8c0.5-0.2,1.1-0.3,1.8-0.3c0.7,0,1.2,0.1,1.6,0.2c0.4,0.2,0.7,0.4,0.9,0.6c0.2,0.2,0.3,0.5,0.4,0.9
		c0,0.2,0.1,0.6,0.1,1.2V65c0,1.2,0,2,0.1,2.3s0.2,0.6,0.3,0.9h-1.4C84.7,68,84.6,67.7,84.6,67.3z M84.5,64.4
		c-0.5,0.2-1.2,0.4-2.2,0.5c-0.5,0.1-0.9,0.2-1.2,0.3c-0.2,0.1-0.4,0.2-0.5,0.4c-0.1,0.2-0.2,0.4-0.2,0.6c0,0.4,0.1,0.6,0.4,0.9
		c0.3,0.2,0.7,0.4,1.2,0.4c0.5,0,1-0.1,1.4-0.3c0.4-0.2,0.7-0.5,0.9-0.9c0.1-0.3,0.2-0.7,0.2-1.3V64.4z"/>
	<path d="M87.9,68.3V57.5h1.3v10.8H87.9z"/>
	<path d="M95.7,68.3V57.5h7.3v1.3h-5.8v3.3h5.1v1.3h-5.1v4.9H95.7z"/>
	<path d="M104.1,64.4c0-1.4,0.4-2.5,1.2-3.2c0.7-0.6,1.5-0.9,2.5-0.9c1.1,0,1.9,0.4,2.6,1.1c0.7,0.7,1,1.7,1,2.9
		c0,1-0.2,1.8-0.5,2.4c-0.3,0.6-0.7,1-1.3,1.3c-0.6,0.3-1.2,0.5-1.9,0.5c-1.1,0-2-0.4-2.6-1.1C104.4,66.7,104.1,65.7,104.1,64.4z
		 M105.5,64.4c0,1,0.2,1.7,0.7,2.2c0.4,0.5,1,0.7,1.6,0.7c0.7,0,1.2-0.2,1.6-0.7s0.7-1.3,0.7-2.3c0-1-0.2-1.7-0.7-2.2
		s-1-0.7-1.6-0.7c-0.7,0-1.2,0.2-1.6,0.7C105.7,62.7,105.5,63.4,105.5,64.4z"/>
	<path d="M118.1,68.3v-1.1c-0.6,0.9-1.4,1.3-2.5,1.3c-0.5,0-0.9-0.1-1.3-0.3c-0.4-0.2-0.7-0.4-0.9-0.7c-0.2-0.3-0.3-0.6-0.4-1
		c-0.1-0.3-0.1-0.7-0.1-1.2v-4.8h1.3v4.3c0,0.7,0,1.2,0.1,1.4c0.1,0.3,0.3,0.6,0.5,0.8c0.3,0.2,0.6,0.3,1,0.3c0.4,0,0.8-0.1,1.1-0.3
		c0.3-0.2,0.6-0.5,0.7-0.8c0.1-0.4,0.2-0.9,0.2-1.5v-4.2h1.3v7.8H118.1z"/>
	<path d="M121.3,68.3v-7.8h1.2v1.1c0.6-0.9,1.4-1.3,2.5-1.3c0.5,0,0.9,0.1,1.3,0.3s0.7,0.4,0.9,0.7c0.2,0.3,0.3,0.6,0.4,1
		c0,0.2,0.1,0.7,0.1,1.3v4.8h-1.3v-4.7c0-0.5-0.1-0.9-0.2-1.2c-0.1-0.3-0.3-0.5-0.5-0.6c-0.3-0.2-0.6-0.2-0.9-0.2
		c-0.6,0-1,0.2-1.5,0.5c-0.4,0.4-0.6,1-0.6,2v4.3H121.3z"/>
	<path d="M134.8,68.3v-1c-0.5,0.8-1.2,1.2-2.2,1.2c-0.6,0-1.2-0.2-1.7-0.5s-0.9-0.8-1.2-1.4c-0.3-0.6-0.4-1.3-0.4-2.1
		c0-0.8,0.1-1.5,0.4-2.1c0.3-0.6,0.6-1.1,1.2-1.5c0.5-0.3,1.1-0.5,1.7-0.5c0.5,0,0.9,0.1,1.3,0.3s0.7,0.5,0.9,0.8v-3.9h1.3v10.8
		H134.8z M130.6,64.4c0,1,0.2,1.7,0.6,2.2s0.9,0.7,1.5,0.7c0.6,0,1.1-0.2,1.5-0.7c0.4-0.5,0.6-1.2,0.6-2.2c0-1.1-0.2-1.9-0.6-2.4
		s-0.9-0.7-1.5-0.7c-0.6,0-1.1,0.2-1.5,0.7C130.8,62.6,130.6,63.4,130.6,64.4z"/>
	<path d="M143.2,67.3c-0.5,0.4-1,0.7-1.4,0.9c-0.5,0.2-0.9,0.3-1.5,0.3c-0.9,0-1.5-0.2-2-0.6c-0.5-0.4-0.7-1-0.7-1.6
		c0-0.4,0.1-0.7,0.3-1c0.2-0.3,0.4-0.6,0.7-0.8c0.3-0.2,0.6-0.3,1-0.4c0.3-0.1,0.7-0.1,1.2-0.2c1.1-0.1,1.9-0.3,2.4-0.5
		c0-0.2,0-0.3,0-0.3c0-0.5-0.1-0.9-0.4-1.1c-0.3-0.3-0.8-0.4-1.5-0.4c-0.6,0-1.1,0.1-1.4,0.3c-0.3,0.2-0.5,0.6-0.7,1.2l-1.3-0.2
		c0.1-0.6,0.3-1,0.6-1.3c0.3-0.3,0.7-0.6,1.2-0.8c0.5-0.2,1.1-0.3,1.8-0.3c0.7,0,1.2,0.1,1.6,0.2c0.4,0.2,0.7,0.4,0.9,0.6
		s0.3,0.5,0.4,0.9c0,0.2,0.1,0.6,0.1,1.2V65c0,1.2,0,2,0.1,2.3s0.2,0.6,0.3,0.9h-1.4C143.3,68,143.2,67.7,143.2,67.3z M143.1,64.4
		c-0.5,0.2-1.2,0.4-2.2,0.5c-0.5,0.1-0.9,0.2-1.2,0.3s-0.4,0.2-0.5,0.4c-0.1,0.2-0.2,0.4-0.2,0.6c0,0.4,0.1,0.6,0.4,0.9
		s0.7,0.4,1.2,0.4c0.5,0,1-0.1,1.4-0.3c0.4-0.2,0.7-0.5,0.9-0.9c0.1-0.3,0.2-0.7,0.2-1.3V64.4z"/>
	<path d="M149.3,67.1l0.2,1.2c-0.4,0.1-0.7,0.1-1,0.1c-0.5,0-0.9-0.1-1.1-0.2c-0.3-0.2-0.5-0.4-0.6-0.6c-0.1-0.2-0.2-0.8-0.2-1.6
		v-4.5h-1v-1h1v-1.9l1.3-0.8v2.7h1.3v1H148v4.6c0,0.4,0,0.6,0.1,0.7c0,0.1,0.1,0.2,0.2,0.3c0.1,0.1,0.3,0.1,0.5,0.1
		C148.9,67.2,149.1,67.2,149.3,67.1z"/>
	<path d="M150.6,59.1v-1.5h1.3v1.5H150.6z M150.6,68.3v-7.8h1.3v7.8H150.6z"/>
	<path d="M153.5,64.4c0-1.4,0.4-2.5,1.2-3.2c0.7-0.6,1.5-0.9,2.5-0.9c1.1,0,1.9,0.4,2.6,1.1c0.7,0.7,1,1.7,1,2.9
		c0,1-0.2,1.8-0.5,2.4c-0.3,0.6-0.7,1-1.3,1.3c-0.6,0.3-1.2,0.5-1.9,0.5c-1.1,0-2-0.4-2.6-1.1C153.8,66.7,153.5,65.7,153.5,64.4z
		 M154.8,64.4c0,1,0.2,1.7,0.7,2.2s1,0.7,1.6,0.7c0.7,0,1.2-0.2,1.6-0.7s0.7-1.3,0.7-2.3c0-1-0.2-1.7-0.7-2.2
		c-0.4-0.5-1-0.7-1.6-0.7c-0.7,0-1.2,0.2-1.6,0.7C155.1,62.7,154.8,63.4,154.8,64.4z"/>
	<path d="M162.3,68.3v-7.8h1.2v1.1c0.6-0.9,1.4-1.3,2.5-1.3c0.5,0,0.9,0.1,1.3,0.3s0.7,0.4,0.9,0.7s0.3,0.6,0.4,1
		c0,0.2,0.1,0.7,0.1,1.3v4.8h-1.3v-4.7c0-0.5-0.1-0.9-0.2-1.2c-0.1-0.3-0.3-0.5-0.5-0.6s-0.6-0.2-0.9-0.2c-0.6,0-1,0.2-1.5,0.5
		s-0.6,1-0.6,2v4.3H162.3z"/>
</g>
</svg>
